<svg version="1.1" id="Layer_1" xmlns="http://www.w3.org/2000/svg" xmlns:xlink="http://www.w3.org/1999/xlink" x="0px" y="0px"
	 width="100%" viewBox="0 0 128 134" enable-background="new 0 0 128 134" xml:space="preserve">
<path fill="#181818" opacity="1.000000" stroke="none" 
	d="
M89.000000,135.000000 
	C59.361187,135.000000 30.222374,135.000000 1.041781,135.000000 
	C1.041781,90.403877 1.041781,45.807705 1.041781,1.105765 
	C43.555176,1.105765 86.110703,1.105765 128.833115,1.105765 
	C128.833115,45.666149 128.833115,90.333031 128.833115,135.000000 
	C115.808144,135.000000 102.654076,135.000000 89.000000,135.000000 
M47.024899,93.234589 
	C39.705868,86.712914 32.358665,80.222412 25.085421,73.650063 
	C22.976540,71.744408 21.423925,71.266457 19.482796,74.016144 
	C12.367149,84.095764 14.469267,100.191322 24.231104,109.071686 
	C34.146156,118.091431 49.803146,118.371704 59.402424,109.833618 
	C61.673794,107.813332 61.943714,106.164673 59.560513,104.171768 
	C55.744957,100.981071 51.968769,97.743286 48.043636,94.141396 
	C47.858257,93.901886 47.616451,93.808548 47.024899,93.234589 
M75.588585,95.082344 
	C85.278404,86.425323 94.872223,77.657013 104.709579,69.171028 
	C108.200706,66.159485 108.237373,63.973854 105.125542,60.613796 
	C100.493660,55.612438 96.206436,50.258453 92.131836,44.786964 
	C89.692764,41.511703 87.809929,40.909210 84.556366,43.803864 
	C79.959442,47.893681 75.036873,51.639160 70.055054,55.258682 
	C68.876511,56.114944 66.478661,56.651516 65.369469,56.032043 
	C55.558697,50.552864 55.287125,48.497036 62.780941,40.641411 
	C67.437874,35.759624 67.479301,35.713497 72.502388,40.223518 
	C74.859543,42.339909 76.800201,44.117828 80.186424,41.456997 
	C86.612411,36.407581 86.740341,36.586929 81.169189,30.428848 
	C80.164093,29.317862 79.195114,28.165148 78.303955,26.961718 
	C74.781189,22.204515 71.296013,17.419470 68.149452,13.125831 
	C58.018757,24.938066 48.091988,36.582748 38.069206,48.144196 
	C35.863068,50.689011 37.472694,51.857540 39.332336,53.279305 
	C47.405384,59.451427 55.507618,65.589005 63.452419,71.923286 
	C66.274971,74.173668 68.483696,74.363182 71.317749,71.925804 
	C75.733566,68.128044 80.487129,64.725807 85.011749,61.050320 
	C86.744492,59.642773 88.621346,58.425797 89.856056,60.966831 
	C90.428146,62.144188 89.867378,64.782333 88.861099,65.665886 
	C83.107994,70.717285 76.940552,75.296028 71.173599,80.332726 
	C68.105125,83.012634 65.881279,82.583733 62.990143,80.102356 
	C54.646671,72.941399 46.108208,66.007423 37.636650,58.995995 
	C33.411758,55.499290 32.625145,55.725285 28.081137,60.782257 
	C25.286968,63.891857 24.680332,66.283951 28.477602,69.406281 
	C38.898968,77.975319 49.016861,86.913841 59.240982,95.722244 
	C67.454636,102.798553 65.770241,104.206085 75.588585,95.082344 
M81.954590,113.725952 
	C93.681786,118.143364 104.423676,115.709488 112.419289,106.823311 
	C120.028976,98.366043 121.578445,86.399178 116.395294,76.115883 
	C113.469948,70.312035 112.608910,70.140709 107.914436,74.471764 
	C98.490089,83.166519 89.110535,91.910309 79.638550,100.552826 
	C71.791489,107.712715 71.827705,108.318954 81.954590,113.725952 
M60.859947,118.466148 
	C58.766197,125.314339 58.766163,125.319328 65.656929,125.367302 
	C67.803284,125.382240 70.023590,125.686737 72.065727,125.223068 
	C73.108215,124.986366 74.704987,123.180176 74.552620,122.362701 
	C73.749191,118.052078 72.468246,113.830475 71.410469,109.797173 
	C68.325684,109.797173 65.783180,109.797173 63.247208,109.797173 
	C62.472534,112.574348 61.763458,115.116364 60.859947,118.466148 
z"/>
<path fill="#EAEAEA" opacity="1.000000" stroke="none" 
	d="
M75.327789,95.320412 
	C65.770241,104.206085 67.454636,102.798553 59.240982,95.722244 
	C49.016861,86.913841 38.898968,77.975319 28.477602,69.406281 
	C24.680332,66.283951 25.286968,63.891857 28.081137,60.782257 
	C32.625145,55.725285 33.411758,55.499290 37.636650,58.995995 
	C46.108208,66.007423 54.646671,72.941399 62.990143,80.102356 
	C65.881279,82.583733 68.105125,83.012634 71.173599,80.332726 
	C76.940552,75.296028 83.107994,70.717285 88.861099,65.665886 
	C89.867378,64.782333 90.428146,62.144188 89.856056,60.966831 
	C88.621346,58.425797 86.744492,59.642773 85.011749,61.050320 
	C80.487129,64.725807 75.733566,68.128044 71.317749,71.925804 
	C68.483696,74.363182 66.274971,74.173668 63.452419,71.923286 
	C55.507618,65.589005 47.405384,59.451427 39.332336,53.279305 
	C37.472694,51.857540 35.863068,50.689011 38.069206,48.144196 
	C48.091988,36.582748 58.018757,24.938066 68.149452,13.125831 
	C71.296013,17.419470 74.781189,22.204515 78.303955,26.961718 
	C79.195114,28.165148 80.164093,29.317862 81.169189,30.428848 
	C86.740341,36.586929 86.612411,36.407581 80.186424,41.456997 
	C76.800201,44.117828 74.859543,42.339909 72.502388,40.223518 
	C67.479301,35.713497 67.437874,35.759624 62.780941,40.641411 
	C55.287125,48.497036 55.558697,50.552864 65.369469,56.032043 
	C66.478661,56.651516 68.876511,56.114944 70.055054,55.258682 
	C75.036873,51.639160 79.959442,47.893681 84.556366,43.803864 
	C87.809929,40.909210 89.692764,41.511703 92.131836,44.786964 
	C96.206436,50.258453 100.493660,55.612438 105.125542,60.613796 
	C108.237373,63.973854 108.200706,66.159485 104.709579,69.171028 
	C94.872223,77.657013 85.278404,86.425323 75.327789,95.320412 
z"/>
<path fill="#EAEAEA" opacity="1.000000" stroke="none" 
	d="
M81.613144,113.550583 
	C71.827705,108.318954 71.791489,107.712715 79.638550,100.552826 
	C89.110535,91.910309 98.490089,83.166519 107.914436,74.471764 
	C112.608910,70.140709 113.469948,70.312035 116.395294,76.115883 
	C121.578445,86.399178 120.028976,98.366043 112.419289,106.823311 
	C104.423676,115.709488 93.681786,118.143364 81.613144,113.550583 
z"/>
<path fill="#ECECEC" opacity="1.000000" stroke="none" 
	d="
M48.175945,94.525406 
	C51.968769,97.743286 55.744957,100.981071 59.560513,104.171768 
	C61.943714,106.164673 61.673794,107.813332 59.402424,109.833618 
	C49.803146,118.371704 34.146156,118.091431 24.231104,109.071686 
	C14.469267,100.191322 12.367149,84.095764 19.482796,74.016144 
	C21.423925,71.266457 22.976540,71.744408 25.085421,73.650063 
	C32.358665,80.222412 39.705868,86.712914 46.882362,93.691628 
	C46.312233,94.807724 45.884636,95.466774 45.457043,96.125832 
	C45.706982,96.316765 45.956917,96.507690 46.206856,96.698624 
	C46.863216,95.974220 47.519581,95.249809 48.175945,94.525406 
M40.259541,104.323021 
	C39.493397,103.966522 38.727257,103.610023 37.961113,103.253532 
	C37.872383,103.677055 37.783657,104.100586 37.694927,104.524117 
	C38.410389,104.587730 39.125847,104.651352 40.259541,104.323021 
M49.358288,111.012154 
	C49.810555,110.909821 50.262825,110.807480 50.715092,110.705147 
	C50.512695,110.345436 50.310299,109.985733 50.107906,109.626022 
	C49.817429,109.916649 49.526951,110.207275 49.358288,111.012154 
M35.451080,107.243279 
	C35.185963,107.057640 34.920845,106.872002 34.655727,106.686371 
	C34.825642,106.961708 34.995556,107.237038 35.451080,107.243279 
M44.546818,107.756271 
	C44.812973,107.942612 45.079128,108.128952 45.345284,108.315285 
	C45.174698,108.038895 45.004116,107.762497 44.546818,107.756271 
z"/>
<path fill="#E7E7E7" opacity="1.000000" stroke="none" 
	d="
M60.957165,118.062263 
	C61.763458,115.116364 62.472534,112.574348 63.247208,109.797173 
	C65.783180,109.797173 68.325684,109.797173 71.410469,109.797173 
	C72.468246,113.830475 73.749191,118.052078 74.552620,122.362701 
	C74.704987,123.180176 73.108215,124.986366 72.065727,125.223068 
	C70.023590,125.686737 67.803284,125.382240 65.656929,125.367302 
	C58.766163,125.319328 58.766197,125.314339 60.957165,118.062263 
z"/>
<path fill="#E7E7E7" opacity="1.000000" stroke="none" 
	d="
M48.109791,94.333405 
	C47.519581,95.249809 46.863216,95.974220 46.206856,96.698624 
	C45.956917,96.507690 45.706982,96.316765 45.457043,96.125832 
	C45.884636,95.466774 46.312233,94.807724 47.029022,94.005020 
	C47.616451,93.808548 47.858257,93.901886 48.109791,94.333405 
z"/>
<path fill="#E7E7E7" opacity="1.000000" stroke="none" 
	d="
M40.050423,104.518997 
	C39.125847,104.651352 38.410389,104.587730 37.694927,104.524117 
	C37.783657,104.100586 37.872383,103.677055 37.961113,103.253532 
	C38.727257,103.610023 39.493397,103.966522 40.050423,104.518997 
z"/>
<path fill="#E7E7E7" opacity="1.000000" stroke="none" 
	d="
M49.297379,110.755020 
	C49.526951,110.207275 49.817429,109.916649 50.107903,109.626022 
	C50.310299,109.985733 50.512695,110.345436 50.715092,110.705147 
	C50.262825,110.807480 49.810555,110.909821 49.297379,110.755020 
z"/>
<path fill="#E7E7E7" opacity="1.000000" stroke="none" 
	d="
M35.308273,107.377823 
	C34.995556,107.237038 34.825642,106.961708 34.655731,106.686371 
	C34.920845,106.872002 35.185963,107.057640 35.308273,107.377823 
z"/>
<path fill="#E7E7E7" opacity="1.000000" stroke="none" 
	d="
M44.690174,107.621185 
	C45.004116,107.762497 45.174698,108.038895 45.345284,108.315285 
	C45.079128,108.128952 44.812973,107.942612 44.690174,107.621185 
z"/>
</svg>